<svg width="17" height="17" viewBox="0 0 17 17" fill="none" xmlns="http://www.w3.org/2000/svg">
<path fill-rule="evenodd" clip-rule="evenodd" d="M1.21429 0C0.892237 0 0.583379 0.127933 0.355656 0.355656C0.127933 0.583379 0 0.892237 0 1.21429L0 8.5C0 8.82205 0.127933 9.13091 0.355656 9.35863C0.583379 9.58635 0.892237 9.71429 1.21429 9.71429H6.07143C6.39348 9.71429 6.70234 9.58635 6.93006 9.35863C7.15778 9.13091 7.28571 8.82205 7.28571 8.5V1.21429C7.28571 0.892237 7.15778 0.583379 6.93006 0.355656C6.70234 0.127933 6.39348 0 6.07143 0L1.21429 0ZM9.71429 1.21429C9.71429 0.892237 9.84222 0.583379 10.0699 0.355656C10.2977 0.127933 10.6065 0 10.9286 0L15.7857 0C16.1078 0 16.4166 0.127933 16.6443 0.355656C16.8721 0.583379 17 0.892237 17 1.21429V3.655C17 3.97705 16.8721 4.28591 16.6443 4.51363C16.4166 4.74135 16.1078 4.86929 15.7857 4.86929H10.9286C10.6065 4.86929 10.2977 4.74135 10.0699 4.51363C9.84222 4.28591 9.71429 3.97705 9.71429 3.655V1.21429ZM9.71429 8.5C9.71429 8.17795 9.84222 7.86909 10.0699 7.64137C10.2977 7.41365 10.6065 7.28571 10.9286 7.28571H15.7857C16.1078 7.28571 16.4166 7.41365 16.6443 7.64137C16.8721 7.86909 17 8.17795 17 8.5V15.7857C17 16.1078 16.8721 16.4166 16.6443 16.6443C16.4166 16.8721 16.1078 17 15.7857 17H10.9286C10.6065 17 10.2977 16.8721 10.0699 16.6443C9.84222 16.4166 9.71429 16.1078 9.71429 15.7857V8.5ZM0 13.345C0 13.023 0.127933 12.7141 0.355656 12.4864C0.583379 12.2586 0.892237 12.1307 1.21429 12.1307H6.07143C6.39348 12.1307 6.70234 12.2586 6.93006 12.4864C7.15778 12.7141 7.28571 13.023 7.28571 13.345V15.7857C7.28571 16.1078 7.15778 16.4166 6.93006 16.6443C6.70234 16.8721 6.39348 17 6.07143 17H1.21429C0.892237 17 0.583379 16.8721 0.355656 16.6443C0.127933 16.4166 0 16.1078 0 15.7857V13.345Z" fill="#00BE5D"/>
</svg>
