<svg width="18" height="18" viewBox="0 0 18 18" fill="none" xmlns="http://www.w3.org/2000/svg">
<circle cx="8.68509" cy="5.45852" r="3.58352" fill="#00BE5D" stroke="#00BE5D" stroke-linecap="round" stroke-linejoin="round"/>
<path fill-rule="evenodd" clip-rule="evenodd" d="M3.00001 14.0262C2.99905 13.7742 3.05539 13.5254 3.16477 13.2985C3.50802 12.612 4.47598 12.2481 5.27919 12.0834C5.85846 11.9598 6.44573 11.8772 7.03663 11.8362C8.13063 11.7401 9.23095 11.7401 10.325 11.8362C10.9158 11.8776 11.503 11.9602 12.0824 12.0834C12.8856 12.2481 13.8536 12.5777 14.1968 13.2985C14.4168 13.7611 14.4168 14.2981 14.1968 14.7607C13.8536 15.4815 12.8856 15.8111 12.0824 15.969C11.5038 16.0977 10.9163 16.1826 10.325 16.223C9.43453 16.2984 8.53994 16.3122 7.64761 16.2642C7.44166 16.2642 7.24258 16.2642 7.03663 16.223C6.44747 16.1831 5.86224 16.0982 5.28605 15.969C4.47598 15.8111 3.51489 15.4815 3.16477 14.7607C3.05595 14.5312 2.99966 14.2802 3.00001 14.0262Z" fill="#00BE5D" stroke="#00BE5D" stroke-linecap="round" stroke-linejoin="round"/>
</svg>
