<svg width="20" height="17" viewBox="0 0 20 17" fill="none" xmlns="http://www.w3.org/2000/svg">
<path d="M4 17C2.9 17 1.95833 16.5839 1.175 15.7516C0.391667 14.9193 0 13.9187 0 12.75V4.25C0 3.08125 0.391667 2.08073 1.175 1.24844C1.95833 0.416146 2.9 0 4 0H16C17.1 0 18.0417 0.416146 18.825 1.24844C19.6083 2.08073 20 3.08125 20 4.25V12.75C20 13.9187 19.6083 14.9193 18.825 15.7516C18.0417 16.5839 17.1 17 16 17H4ZM4 4.25H16C16.3667 4.25 16.7167 4.29427 17.05 4.38281C17.3833 4.47135 17.7 4.61302 18 4.80781V4.25C18 3.66563 17.8043 3.16554 17.413 2.74975C17.0217 2.33396 16.5507 2.12571 16 2.125H4C3.45 2.125 2.97933 2.33325 2.588 2.74975C2.19667 3.16625 2.00067 3.66633 2 4.25V4.80781C2.3 4.61302 2.61667 4.47135 2.95 4.38281C3.28333 4.29427 3.63333 4.25 4 4.25ZM2.15 7.70312L13.275 10.5719C13.425 10.6073 13.575 10.6073 13.725 10.5719C13.875 10.5365 14.0167 10.4656 14.15 10.3594L17.625 7.27813C17.4417 7.0125 17.2083 6.79575 16.925 6.62787C16.6417 6.46 16.3333 6.37571 16 6.375H4C3.56667 6.375 3.18767 6.49471 2.863 6.73413C2.53833 6.97354 2.30067 7.29654 2.15 7.70312Z" fill="#00BE5D"/>
</svg>
