<svg width="17" height="17" viewBox="0 0 17 17" fill="none" xmlns="http://www.w3.org/2000/svg">
<path fill-rule="evenodd" clip-rule="evenodd" d="M0 1.77083C0 0.792389 0.793333 0 1.77083 0H6.02083C6.99928 0 7.79167 0.793333 7.79167 1.77083V6.02083C7.79167 6.99928 6.99833 7.79167 6.02083 7.79167H1.77083C1.30118 7.79167 0.850761 7.6051 0.518665 7.273C0.186569 6.94091 0 6.49049 0 6.02083V1.77083ZM1.77083 1.41667C1.6769 1.41667 1.58682 1.45398 1.5204 1.5204C1.45398 1.58682 1.41667 1.6769 1.41667 1.77083V6.02083C1.41667 6.21633 1.57533 6.375 1.77083 6.375H6.02083C6.11476 6.375 6.20485 6.33769 6.27127 6.27127C6.33769 6.20485 6.375 6.11476 6.375 6.02083V1.77083C6.375 1.6769 6.33769 1.58682 6.27127 1.5204C6.20485 1.45398 6.11476 1.41667 6.02083 1.41667H1.77083ZM9.20833 1.77083C9.20833 0.792389 10.0017 0 10.9792 0H15.2292C16.2067 0 17 0.793333 17 1.77083V6.02083C17 6.99928 16.2067 7.79167 15.2292 7.79167H10.9792C10.5095 7.79167 10.0591 7.6051 9.727 7.273C9.3949 6.94091 9.20833 6.49049 9.20833 6.02083V1.77083ZM10.9792 1.41667C10.8852 1.41667 10.7952 1.45398 10.7287 1.5204C10.6623 1.58682 10.625 1.6769 10.625 1.77083V6.02083C10.625 6.21633 10.7837 6.375 10.9792 6.375H15.2292C15.3231 6.375 15.4132 6.33769 15.4796 6.27127C15.546 6.20485 15.5833 6.11476 15.5833 6.02083V1.77083C15.5833 1.6769 15.546 1.58682 15.4796 1.5204C15.4132 1.45398 15.3231 1.41667 15.2292 1.41667H10.9792ZM2.83333 3.54167C2.83333 3.35381 2.90796 3.17364 3.0408 3.0408C3.17364 2.90796 3.35381 2.83333 3.54167 2.83333H4.25C4.43786 2.83333 4.61803 2.90796 4.75087 3.0408C4.88371 3.17364 4.95833 3.35381 4.95833 3.54167V4.25C4.95833 4.43786 4.88371 4.61803 4.75087 4.75087C4.61803 4.88371 4.43786 4.95833 4.25 4.95833H3.54167C3.35381 4.95833 3.17364 4.88371 3.0408 4.75087C2.90796 4.61803 2.83333 4.43786 2.83333 4.25V3.54167ZM12.0417 3.54167C12.0417 3.35381 12.1163 3.17364 12.2491 3.0408C12.382 2.90796 12.5621 2.83333 12.75 2.83333H13.4583C13.6462 2.83333 13.8264 2.90796 13.9592 3.0408C14.092 3.17364 14.1667 3.35381 14.1667 3.54167V4.25C14.1667 4.43786 14.092 4.61803 13.9592 4.75087C13.8264 4.88371 13.6462 4.95833 13.4583 4.95833H12.75C12.5621 4.95833 12.382 4.88371 12.2491 4.75087C12.1163 4.61803 12.0417 4.43786 12.0417 4.25V3.54167ZM0 10.9792C0 10.0007 0.793333 9.20833 1.77083 9.20833H6.02083C6.99928 9.20833 7.79167 10.0017 7.79167 10.9792V15.2292C7.79167 16.2067 6.99833 17 6.02083 17H1.77083C1.30118 17 0.850761 16.8134 0.518665 16.4813C0.186569 16.1492 0 15.6988 0 15.2292V10.9792ZM1.77083 10.625C1.6769 10.625 1.58682 10.6623 1.5204 10.7287C1.45398 10.7952 1.41667 10.8852 1.41667 10.9792V15.2292C1.41667 15.4247 1.57533 15.5833 1.77083 15.5833H6.02083C6.11476 15.5833 6.20485 15.546 6.27127 15.4796C6.33769 15.4132 6.375 15.3231 6.375 15.2292V10.9792C6.375 10.8852 6.33769 10.7952 6.27127 10.7287C6.20485 10.6623 6.11476 10.625 6.02083 10.625H1.77083ZM9.20833 9.91667C9.20833 9.72881 9.28296 9.54864 9.4158 9.4158C9.54864 9.28296 9.72881 9.20833 9.91667 9.20833H10.625C10.8129 9.20833 10.993 9.28296 11.1259 9.4158C11.2587 9.54864 11.3333 9.72881 11.3333 9.91667V10.625C11.3333 10.8129 11.2587 10.993 11.1259 11.1259C10.993 11.2587 10.8129 11.3333 10.625 11.3333H9.91667C9.72881 11.3333 9.54864 11.2587 9.4158 11.1259C9.28296 10.993 9.20833 10.8129 9.20833 10.625V9.91667ZM14.875 9.91667C14.875 9.72881 14.9496 9.54864 15.0825 9.4158C15.2153 9.28296 15.3955 9.20833 15.5833 9.20833H16.2917C16.4795 9.20833 16.6597 9.28296 16.7925 9.4158C16.9254 9.54864 17 9.72881 17 9.91667V10.625C17 10.8129 16.9254 10.993 16.7925 11.1259C16.6597 11.2587 16.4795 11.3333 16.2917 11.3333H15.5833C15.3955 11.3333 15.2153 11.2587 15.0825 11.1259C14.9496 10.993 14.875 10.8129 14.875 10.625V9.91667ZM2.83333 12.75C2.83333 12.5621 2.90796 12.382 3.0408 12.2491C3.17364 12.1163 3.35381 12.0417 3.54167 12.0417H4.25C4.43786 12.0417 4.61803 12.1163 4.75087 12.2491C4.88371 12.382 4.95833 12.5621 4.95833 12.75V13.4583C4.95833 13.6462 4.88371 13.8264 4.75087 13.9592C4.61803 14.092 4.43786 14.1667 4.25 14.1667H3.54167C3.35381 14.1667 3.17364 14.092 3.0408 13.9592C2.90796 13.8264 2.83333 13.6462 2.83333 13.4583V12.75ZM12.0417 12.75C12.0417 12.5621 12.1163 12.382 12.2491 12.2491C12.382 12.1163 12.5621 12.0417 12.75 12.0417H13.4583C13.6462 12.0417 13.8264 12.1163 13.9592 12.2491C14.092 12.382 14.1667 12.5621 14.1667 12.75V13.4583C14.1667 13.6462 14.092 13.8264 13.9592 13.9592C13.8264 14.092 13.6462 14.1667 13.4583 14.1667H12.75C12.5621 14.1667 12.382 14.092 12.2491 13.9592C12.1163 13.8264 12.0417 13.6462 12.0417 13.4583V12.75ZM9.20833 15.5833C9.20833 15.3955 9.28296 15.2153 9.4158 15.0825C9.54864 14.9496 9.72881 14.875 9.91667 14.875H10.625C10.8129 14.875 10.993 14.9496 11.1259 15.0825C11.2587 15.2153 11.3333 15.3955 11.3333 15.5833V16.2917C11.3333 16.4795 11.2587 16.6597 11.1259 16.7925C10.993 16.9254 10.8129 17 10.625 17H9.91667C9.72881 17 9.54864 16.9254 9.4158 16.7925C9.28296 16.6597 9.20833 16.4795 9.20833 16.2917V15.5833ZM14.875 15.5833C14.875 15.3955 14.9496 15.2153 15.0825 15.0825C15.2153 14.9496 15.3955 14.875 15.5833 14.875H16.2917C16.4795 14.875 16.6597 14.9496 16.7925 15.0825C16.9254 15.2153 17 15.3955 17 15.5833V16.2917C17 16.4795 16.9254 16.6597 16.7925 16.7925C16.6597 16.9254 16.4795 17 16.2917 17H15.5833C15.3955 17 15.2153 16.9254 15.0825 16.7925C14.9496 16.6597 14.875 16.4795 14.875 16.2917V15.5833Z" fill="#00BE5D"/>
</svg>
