<svg width="45" height="46" viewBox="0 0 45 46" fill="none" xmlns="http://www.w3.org/2000/svg">
<rect y="0.5" width="44.9473" height="44.9473" rx="22.4737" fill="#EBFAF2"/>
<path fill-rule="evenodd" clip-rule="evenodd" d="M19.6297 29.8098V27.2542C19.6297 26.6042 20.1596 26.076 20.8162 26.0717H23.2213C23.881 26.0717 24.4158 26.6011 24.4158 27.2542V29.8178C24.4156 30.3697 24.8606 30.8207 25.4179 30.8337H27.0213C28.6196 30.8337 29.9154 29.5509 29.9154 27.9685V20.6985C29.9068 20.076 29.6116 19.4914 29.1137 19.1112L23.6301 14.7381C22.6695 13.9766 21.3039 13.9766 20.3432 14.7381L14.8837 19.1191C14.3839 19.4978 14.0882 20.0834 14.082 20.7065V27.9685C14.082 29.5509 15.3778 30.8337 16.9761 30.8337H18.5795C19.1507 30.8337 19.6137 30.3753 19.6137 29.8098" fill="#00BA5B"/>
<path d="M19.6297 29.8098V27.2542C19.6297 26.6042 20.1596 26.076 20.8162 26.0717H23.2213C23.881 26.0717 24.4158 26.6011 24.4158 27.2542V27.2542V29.8178C24.4156 30.3697 24.8606 30.8207 25.4179 30.8337H27.0213C28.6196 30.8337 29.9154 29.5509 29.9154 27.9685V27.9685V20.6985C29.9068 20.076 29.6116 19.4914 29.1137 19.1112L23.6301 14.7381C22.6695 13.9766 21.3039 13.9766 20.3432 14.7381L14.8837 19.1191C14.3839 19.4978 14.0882 20.0834 14.082 20.7065V27.9685C14.082 29.5509 15.3778 30.8337 16.9761 30.8337H18.5795C19.1507 30.8337 19.6137 30.3753 19.6137 29.8098V29.8098" stroke="#00BA5B" stroke-width="1.11111" stroke-linecap="round" stroke-linejoin="round"/>
</svg>
