<svg width="45" height="45" viewBox="0 0 45 45" fill="none" xmlns="http://www.w3.org/2000/svg">
<rect y="0.0263672" width="44.9473" height="44.9473" rx="22.4737" fill="#EBFAF2"/>
<path fill-rule="evenodd" clip-rule="evenodd" d="M22 15.0264C17.69 15.0264 14 18.0594 14 22.0264C14 24.0504 14.978 25.8514 16.499 27.1114C16.4851 27.7328 16.3048 28.3392 15.977 28.8674C15.909 28.9771 15.8705 29.1025 15.8652 29.2315C15.8599 29.3604 15.888 29.4886 15.9467 29.6035C16.0055 29.7185 16.0929 29.8163 16.2005 29.8876C16.3081 29.9588 16.4323 30.0011 16.561 30.0104C17.9625 30.1153 19.3561 29.723 20.497 28.9024C20.984 28.9844 21.487 29.0264 22 29.0264C26.31 29.0264 30 25.9934 30 22.0264C30 18.0594 26.31 15.0264 22 15.0264ZM22 23.0264C22.2652 23.0264 22.5196 22.921 22.7071 22.7335C22.8946 22.5459 23 22.2916 23 22.0264C23 21.7612 22.8946 21.5068 22.7071 21.3193C22.5196 21.1317 22.2652 21.0264 22 21.0264C21.7348 21.0264 21.4804 21.1317 21.2929 21.3193C21.1054 21.5068 21 21.7612 21 22.0264C21 22.2916 21.1054 22.5459 21.2929 22.7335C21.4804 22.921 21.7348 23.0264 22 23.0264ZM20 22.0264C20 22.2916 19.8946 22.5459 19.7071 22.7335C19.5196 22.921 19.2652 23.0264 19 23.0264C18.7348 23.0264 18.4804 22.921 18.2929 22.7335C18.1054 22.5459 18 22.2916 18 22.0264C18 21.7612 18.1054 21.5068 18.2929 21.3193C18.4804 21.1317 18.7348 21.0264 19 21.0264C19.2652 21.0264 19.5196 21.1317 19.7071 21.3193C19.8946 21.5068 20 21.7612 20 22.0264ZM25 23.0264C25.2652 23.0264 25.5196 22.921 25.7071 22.7335C25.8946 22.5459 26 22.2916 26 22.0264C26 21.7612 25.8946 21.5068 25.7071 21.3193C25.5196 21.1317 25.2652 21.0264 25 21.0264C24.7348 21.0264 24.4804 21.1317 24.2929 21.3193C24.1054 21.5068 24 21.7612 24 22.0264C24 22.2916 24.1054 22.5459 24.2929 22.7335C24.4804 22.921 24.7348 23.0264 25 23.0264Z" fill="#00BE5D"/>
</svg>
