<svg width="45" height="45" viewBox="0 0 45 45" fill="none" xmlns="http://www.w3.org/2000/svg">
<rect y="0.0263672" width="44.9473" height="44.9473" rx="22.4737" fill="#EBFAF2"/>
<path d="M27.8346 15.3594H16.168C15.5049 15.3594 14.869 15.6228 14.4002 16.0916C13.9314 16.5604 13.668 17.1963 13.668 17.8594V26.1927C13.668 26.8558 13.9314 27.4916 14.4002 27.9605C14.869 28.4293 15.5049 28.6927 16.168 28.6927H27.8346C28.4977 28.6927 29.1336 28.4293 29.6024 27.9605C30.0712 27.4916 30.3346 26.8558 30.3346 26.1927V17.8594C30.3346 17.1963 30.0712 16.5604 29.6024 16.0916C29.1336 15.6228 28.4977 15.3594 27.8346 15.3594ZM27.8346 17.026L22.418 20.751C22.2913 20.8242 22.1476 20.8627 22.0013 20.8627C21.855 20.8627 21.7113 20.8242 21.5846 20.751L16.168 17.026H27.8346Z" fill="#00BE5D"/>
</svg>
