<svg width="45" height="45" viewBox="0 0 45 45" fill="none" xmlns="http://www.w3.org/2000/svg">
<rect y="0.0263672" width="44.9473" height="44.9473" rx="22.4737" fill="#EBFAF2"/>
<path d="M21.9596 27.0267C22.2513 27.0267 22.498 26.9259 22.6996 26.7242C22.9013 26.5225 23.0019 26.2761 23.0013 25.985C23.0013 25.6934 22.9007 25.4467 22.6996 25.245C22.4985 25.0434 22.2519 24.9428 21.9596 24.9434C21.668 24.9434 21.4216 25.0442 21.2205 25.2459C21.0194 25.4475 20.9185 25.6939 20.918 25.985C20.918 26.2767 21.0188 26.5234 21.2205 26.725C21.4221 26.9267 21.6685 27.0272 21.9596 27.0267ZM21.2096 23.8184H22.7513C22.7513 23.36 22.8035 22.9989 22.908 22.735C23.0124 22.4711 23.3074 22.11 23.793 21.6517C24.1541 21.2906 24.4388 20.9467 24.6471 20.62C24.8555 20.2934 24.9596 19.9011 24.9596 19.4434C24.9596 18.6656 24.6749 18.0684 24.1055 17.6517C23.536 17.235 22.8624 17.0267 22.0846 17.0267C21.293 17.0267 20.6505 17.235 20.1571 17.6517C19.6638 18.0684 19.3202 18.5684 19.1263 19.1517L20.5013 19.6934C20.5707 19.4434 20.7271 19.1725 20.9705 18.8809C21.2138 18.5892 21.5852 18.4434 22.0846 18.4434C22.5291 18.4434 22.8624 18.565 23.0846 18.8084C23.3069 19.0517 23.418 19.3189 23.418 19.61C23.418 19.8878 23.3346 20.1484 23.168 20.3917C23.0013 20.635 22.793 20.8606 22.543 21.0684C21.9319 21.61 21.5569 22.0197 21.418 22.2975C21.2791 22.5753 21.2096 23.0822 21.2096 23.8184ZM22.0013 30.36C20.8485 30.36 19.7652 30.1411 18.7513 29.7034C17.7374 29.2656 16.8555 28.672 16.1055 27.9225C15.3555 27.1725 14.7619 26.2906 14.3246 25.2767C13.8874 24.2628 13.6685 23.1795 13.668 22.0267C13.668 20.8739 13.8869 19.7906 14.3246 18.7767C14.7624 17.7628 15.356 16.8809 16.1055 16.1309C16.8555 15.3809 17.7374 14.7872 18.7513 14.35C19.7652 13.9128 20.8485 13.6939 22.0013 13.6934C23.1541 13.6934 24.2374 13.9122 25.2513 14.35C26.2652 14.7878 27.1471 15.3814 27.8971 16.1309C28.6471 16.8809 29.241 17.7628 29.6788 18.7767C30.1166 19.7906 30.3352 20.8739 30.3346 22.0267C30.3346 23.1795 30.1157 24.2628 29.678 25.2767C29.2402 26.2906 28.6466 27.1725 27.8971 27.9225C27.1471 28.6725 26.2652 29.2664 25.2513 29.7042C24.2374 30.142 23.1541 30.3606 22.0013 30.36Z" fill="#00BE5D"/>
</svg>
