<svg width="45" height="46" viewBox="0 0 45 46" fill="none" xmlns="http://www.w3.org/2000/svg">
<rect y="0.5" width="44.9473" height="44.9473" rx="22.4737" fill="#EBFAF2"/>
<path d="M25.7961 23.2553L25.4169 23.6328C25.4169 23.6328 24.5144 24.5295 22.0519 22.0811C19.5894 19.6328 20.4919 18.7361 20.4919 18.7361L20.7302 18.4978C21.3194 17.9128 21.3752 16.9728 20.8611 16.2861L19.8111 14.8836C19.1744 14.0336 17.9452 13.9211 17.2161 14.6461L15.9077 15.9461C15.5469 16.3061 15.3052 16.7711 15.3344 17.2878C15.4094 18.6103 16.0077 21.4545 19.3444 24.7728C22.8836 28.2911 26.2044 28.4311 27.5619 28.3045C27.9919 28.2645 28.3652 28.0461 28.6661 27.7461L29.8494 26.5695C30.6494 25.7753 30.4244 24.4128 29.4011 23.857L27.8094 22.9911C27.1377 22.627 26.3211 22.7336 25.7961 23.2553Z" fill="#00BE5D"/>
</svg>
