<svg width="146" height="40" viewBox="0 0 146 40" fill="none" xmlns="http://www.w3.org/2000/svg">
<rect width="6.41093" height="28.0158" rx="3.20546" transform="matrix(-0.70542 0.708789 -0.60698 -0.794717 32.832 24.0962)" fill="#00BE5D"/>
<rect width="6.41093" height="19.774" rx="3.20546" transform="matrix(-0.70542 0.708789 -0.60698 -0.794717 24.6797 26.5015)" fill="#00BE5D"/>
<rect width="6.41093" height="6.74876" rx="3.20546" transform="matrix(-0.70542 0.708789 -0.60698 -0.794717 15.0703 27.0054)" fill="#00BE5D"/>
<path d="M34.0078 2.91357L24.7037 6.6237L31.301 14.1607" stroke="#072900" stroke-width="4.8082" stroke-linecap="round" stroke-linejoin="round"/>
<path d="M47.2533 25.6073C46.2661 25.6073 45.3813 25.447 44.5992 25.1265C43.8171 24.8059 43.1888 24.3315 42.7144 23.7032C42.2528 23.075 42.0092 22.3185 41.9836 21.4338H45.4839C45.5352 21.9338 45.7083 22.3185 46.0032 22.5877C46.2981 22.8442 46.6828 22.9724 47.1572 22.9724C47.6444 22.9724 48.0291 22.8634 48.3111 22.6454C48.5932 22.4146 48.7343 22.1005 48.7343 21.703C48.7343 21.3697 48.6189 21.094 48.3881 20.876C48.1701 20.658 47.8944 20.4785 47.5611 20.3375C47.2405 20.1965 46.7789 20.0362 46.1763 19.8567C45.3044 19.5874 44.5928 19.3182 44.0415 19.0489C43.4901 18.7796 43.0157 18.3822 42.6182 17.8565C42.2208 17.3308 42.022 16.6448 42.022 15.7986C42.022 14.542 42.4772 13.5612 43.3876 12.856C44.2979 12.1379 45.4839 11.7789 46.9456 11.7789C48.433 11.7789 49.6318 12.1379 50.5421 12.856C51.4525 13.5612 51.9397 14.5484 52.0038 15.8178H48.4458C48.4201 15.3819 48.2599 15.0421 47.965 14.7985C47.6701 14.542 47.2918 14.4138 46.8302 14.4138C46.4327 14.4138 46.1122 14.5228 45.8686 14.7408C45.625 14.9459 45.5032 15.2472 45.5032 15.6447C45.5032 16.0806 45.7083 16.4204 46.1186 16.664C46.5289 16.9077 47.17 17.1705 48.0419 17.4526C48.9138 17.7475 49.619 18.0296 50.1575 18.2988C50.7088 18.5681 51.1832 18.9592 51.5807 19.472C51.9782 19.9849 52.1769 20.6452 52.1769 21.453C52.1769 22.2223 51.9782 22.9211 51.5807 23.5494C51.1961 24.1776 50.6319 24.6777 49.8882 25.0495C49.1446 25.4214 48.2663 25.6073 47.2533 25.6073ZM69.6063 14.7408L66.7022 25.4727H63.0672L61.3747 18.5104L59.6245 25.4727H56.0088L53.0854 14.7408H56.3742L57.8936 22.4146L59.7015 14.7408H63.1826L65.0097 22.3762L66.5099 14.7408H69.6063ZM72.5146 13.6253C71.9376 13.6253 71.4632 13.4586 71.0913 13.1252C70.7323 12.779 70.5528 12.3559 70.5528 11.8558C70.5528 11.343 70.7323 10.9199 71.0913 10.5865C71.4632 10.2403 71.9376 10.0672 72.5146 10.0672C73.0787 10.0672 73.5403 10.2403 73.8993 10.5865C74.2711 10.9199 74.4571 11.343 74.4571 11.8558C74.4571 12.3559 74.2711 12.779 73.8993 13.1252C73.5403 13.4586 73.0787 13.6253 72.5146 13.6253ZM74.1493 14.7408V25.4727H70.8605V14.7408H74.1493ZM81.9179 17.4718H80.1485V25.4727H76.8597V17.4718H75.6672V14.7408H76.8597V14.433C76.8597 13.1124 77.2379 12.1123 77.9944 11.4327C78.7509 10.7403 79.86 10.3942 81.3217 10.3942C81.5653 10.3942 81.7448 10.4006 81.8602 10.4134V13.2021C81.2319 13.1637 80.7896 13.2534 80.5331 13.4714C80.2767 13.6894 80.1485 14.0804 80.1485 14.6446V14.7408H81.9179V17.4718ZM89.4447 22.6839V25.4727H87.7714C86.579 25.4727 85.6494 25.1842 84.9827 24.6072C84.3159 24.0174 83.9825 23.0621 83.9825 21.7415V17.4718H82.6747V14.7408H83.9825V12.1251H87.2714V14.7408H89.4254V17.4718H87.2714V21.78C87.2714 22.1005 87.3483 22.3313 87.5021 22.4723C87.656 22.6134 87.9124 22.6839 88.2715 22.6839H89.4447ZM100.18 22.3954L102.507 14.7408H106.007L102.199 25.4727H98.141L94.3329 14.7408H97.8525L100.18 22.3954ZM106.738 20.0875C106.738 18.9848 106.943 18.0167 107.353 17.1833C107.776 16.3499 108.347 15.7088 109.065 15.26C109.783 14.8113 110.584 14.5869 111.469 14.5869C112.225 14.5869 112.886 14.7408 113.45 15.0485C114.027 15.3562 114.469 15.7601 114.777 16.2602V14.7408H118.066V25.4727H114.777V23.9533C114.456 24.4533 114.008 24.8572 113.431 25.1649C112.866 25.4727 112.206 25.6265 111.45 25.6265C110.578 25.6265 109.783 25.4021 109.065 24.9534C108.347 24.4918 107.776 23.8443 107.353 23.0109C106.943 22.1646 106.738 21.1902 106.738 20.0875ZM114.777 20.1067C114.777 19.2861 114.546 18.6386 114.085 18.1642C113.636 17.6898 113.084 17.4526 112.431 17.4526C111.777 17.4526 111.219 17.6898 110.757 18.1642C110.309 18.6258 110.084 19.2669 110.084 20.0875C110.084 20.9081 110.309 21.562 110.757 22.0492C111.219 22.5236 111.777 22.7608 112.431 22.7608C113.084 22.7608 113.636 22.5236 114.085 22.0492C114.546 21.5748 114.777 20.9273 114.777 20.1067ZM123.734 11.2404V25.4727H120.445V11.2404H123.734ZM136.234 19.9336C136.234 20.2413 136.214 20.5619 136.176 20.8953H128.733C128.784 21.562 128.996 22.0749 129.368 22.4339C129.752 22.7801 130.22 22.9532 130.772 22.9532C131.592 22.9532 132.163 22.607 132.483 21.9146H135.984C135.804 22.6198 135.477 23.2545 135.003 23.8186C134.541 24.3828 133.958 24.8252 133.253 25.1457C132.547 25.4662 131.759 25.6265 130.887 25.6265C129.836 25.6265 128.9 25.4021 128.079 24.9534C127.258 24.5046 126.617 23.8635 126.156 23.0301C125.694 22.1967 125.463 21.2222 125.463 20.1067C125.463 18.9912 125.688 18.0167 126.136 17.1833C126.598 16.3499 127.239 15.7088 128.06 15.26C128.88 14.8113 129.823 14.5869 130.887 14.5869C131.926 14.5869 132.849 14.8049 133.656 15.2408C134.464 15.6768 135.093 16.2986 135.541 17.1064C136.003 17.9142 136.234 18.8566 136.234 19.9336ZM132.868 19.0681C132.868 18.504 132.676 18.0552 132.291 17.7218C131.906 17.3885 131.425 17.2218 130.848 17.2218C130.297 17.2218 129.829 17.3821 129.444 17.7026C129.073 18.0232 128.842 18.4783 128.752 19.0681H132.868ZM143.95 22.6839V25.4727H142.277C141.084 25.4727 140.155 25.1842 139.488 24.6072C138.821 24.0174 138.488 23.0621 138.488 21.7415V17.4718H137.18V14.7408H138.488V12.1251H141.777V14.7408H143.931V17.4718H141.777V21.78C141.777 22.1005 141.854 22.3313 142.008 22.4723C142.161 22.6134 142.418 22.6839 142.777 22.6839H143.95Z" fill="#072900"/>
<ellipse cx="121.92" cy="30.6507" rx="2.4041" ry="2.4041" fill="#072900"/>
</svg>
