<svg width="13" height="16" viewBox="0 0 13 16" fill="none" xmlns="http://www.w3.org/2000/svg">
<circle cx="6.68429" cy="4.45852" r="3.58352" stroke="#A8A8A8" stroke-linecap="round" stroke-linejoin="round"/>
<path fill-rule="evenodd" clip-rule="evenodd" d="M1.0002 13.0262C0.999232 12.7742 1.05557 12.5254 1.16495 12.2985C1.5082 11.612 2.47617 11.2481 3.27937 11.0834C3.85864 10.9598 4.44591 10.8772 5.03681 10.8362C6.13081 10.7401 7.23113 10.7401 8.32514 10.8362C8.91599 10.8776 9.50322 10.9602 10.0826 11.0834C10.8858 11.2481 11.8537 11.5777 12.197 12.2985C12.417 12.7611 12.417 13.2981 12.197 13.7607C11.8537 14.4815 10.8858 14.8111 10.0826 14.969C9.50398 15.0977 8.9165 15.1826 8.32514 15.223C7.43471 15.2984 6.54012 15.3122 5.64779 15.2642C5.44184 15.2642 5.24276 15.2642 5.03681 15.223C4.44766 15.1831 3.86242 15.0982 3.28624 14.969C2.47617 14.8111 1.51507 14.4815 1.16495 13.7607C1.05613 13.5312 0.999847 13.2802 1.0002 13.0262Z" stroke="#A8A8A8" stroke-linecap="round" stroke-linejoin="round"/>
</svg>
