<svg width="13" height="16" viewBox="0 0 13 16" fill="none" xmlns="http://www.w3.org/2000/svg">
<circle cx="6.18429" cy="4.45852" r="3.58352" fill="#00BE5D" stroke="#00BE5D" stroke-linecap="round" stroke-linejoin="round"/>
<path fill-rule="evenodd" clip-rule="evenodd" d="M0.500195 13.0262C0.499232 12.7742 0.555573 12.5254 0.664955 12.2985C1.0082 11.612 1.97617 11.2481 2.77937 11.0834C3.35864 10.9598 3.94591 10.8772 4.53681 10.8362C5.63081 10.7401 6.73113 10.7401 7.82514 10.8362C8.41599 10.8776 9.00322 10.9602 9.58258 11.0834C10.3858 11.2481 11.3537 11.5777 11.697 12.2985C11.917 12.7611 11.917 13.2981 11.697 13.7607C11.3537 14.4815 10.3858 14.8111 9.58258 14.969C9.00398 15.0977 8.4165 15.1826 7.82514 15.223C6.93471 15.2984 6.04012 15.3122 5.14779 15.2642C4.94184 15.2642 4.74276 15.2642 4.53681 15.223C3.94766 15.1831 3.36242 15.0982 2.78624 14.969C1.97617 14.8111 1.01507 14.4815 0.664955 13.7607C0.556132 13.5312 0.499847 13.2802 0.500195 13.0262Z" fill="#00BE5D" stroke="#00BE5D" stroke-linecap="round" stroke-linejoin="round"/>
</svg>
