<svg width="17" height="16" viewBox="0 0 17 16" fill="none" xmlns="http://www.w3.org/2000/svg">
<path d="M6.36809 14.5786V12.2785C6.36808 11.6935 6.84502 11.2181 7.43594 11.2142H9.6005C10.1942 11.2142 10.6756 11.6907 10.6756 12.2785V12.2785V14.5857C10.6754 15.0824 11.0759 15.4884 11.5775 15.5H13.0205C14.459 15.5 15.6252 14.3455 15.6252 12.9214V12.9214V6.37838C15.6175 5.81812 15.3518 5.29201 14.9037 4.94977L9.96847 1.01398C9.10388 0.328675 7.87484 0.328675 7.01025 1.01398L2.0967 4.95692C1.64688 5.29777 1.38072 5.82475 1.37518 6.38552V12.9214C1.37518 14.3455 2.54134 15.5 3.97987 15.5H5.4229C5.93695 15.5 6.35366 15.0875 6.35366 14.5786V14.5786" stroke="#BABABA" stroke-linecap="round" stroke-linejoin="round"/>
</svg>
