<svg width="14" height="18" viewBox="0 0 14 18" fill="none" xmlns="http://www.w3.org/2000/svg">
<path d="M6.32492 0.9375C3.77826 0.9375 1.80787 3.16952 2.12374 5.69652L2.18326 6.17266C2.27035 6.86937 2.01585 7.56529 1.49985 8.04146C0.430587 9.02816 0.133515 10.5986 0.768503 11.9077L0.846016 12.0675C1.43789 13.2877 2.67487 14.0625 4.03104 14.0625H10.1967C11.3664 14.0625 12.4552 13.4649 13.0832 12.478C13.9698 11.0849 13.735 9.25741 12.525 8.13372L12.4921 8.10315C11.9382 7.58875 11.6655 6.83934 11.7593 6.08926L11.8077 5.70156C12.1239 3.17188 10.1515 0.9375 7.60211 0.9375H6.32492Z" fill="#00BE5D"/>
<path d="M5.33748 15.4125C5.15109 15.164 4.79851 15.1136 4.54998 15.3C4.30146 15.4864 4.25109 15.839 4.43748 16.0875L4.66248 16.3875C5.89998 18.0375 8.37498 18.0375 9.61248 16.3875L9.83748 16.0875C10.0239 15.839 9.97351 15.4864 9.72499 15.3C9.47646 15.1136 9.12388 15.164 8.93748 15.4125L8.71249 15.7125C7.92498 16.7625 6.34998 16.7625 5.56248 15.7125L5.33748 15.4125Z" fill="#00BE5D"/>
</svg>
