<svg width="14" height="18" viewBox="0 0 14 18" fill="none" xmlns="http://www.w3.org/2000/svg">
<path fill-rule="evenodd" clip-rule="evenodd" d="M6.32492 0.9375C3.77826 0.9375 1.80787 3.16952 2.12374 5.69652L2.18326 6.17266C2.27035 6.86937 2.01585 7.56529 1.49985 8.04146C0.430587 9.02816 0.133515 10.5986 0.768503 11.9077L0.846016 12.0675C1.43789 13.2877 2.67487 14.0625 4.03104 14.0625H10.1967C11.3664 14.0625 12.4552 13.4649 13.0832 12.478C13.9698 11.0849 13.735 9.25741 12.525 8.13372L12.4921 8.10315C11.9382 7.58875 11.6655 6.83934 11.7593 6.08926L11.8077 5.70156C12.1239 3.17188 10.1515 0.9375 7.60211 0.9375H6.32492ZM3.24006 5.55698C3.00811 3.70144 4.45494 2.0625 6.32492 2.0625H7.60211C9.47479 2.0625 10.9237 3.7038 10.6914 5.56202L10.643 5.94972C10.5043 7.05881 10.9076 8.16689 11.7266 8.9275L11.7595 8.95807C12.5716 9.71229 12.7292 10.9389 12.1341 11.874C11.7126 12.5364 10.9818 12.9375 10.1967 12.9375H4.03104C3.10586 12.9375 2.262 12.4089 1.85822 11.5765L1.78071 11.4167C1.36215 10.5538 1.55797 9.51863 2.26278 8.86823C3.04561 8.14585 3.43169 7.09009 3.29957 6.03312L3.24006 5.55698Z" fill="#A8A8A8"/>
<path d="M5.33748 15.4125C5.15109 15.164 4.79851 15.1136 4.54998 15.3C4.30146 15.4864 4.25109 15.839 4.43748 16.0875L4.66248 16.3875C5.89998 18.0375 8.37498 18.0375 9.61248 16.3875L9.83748 16.0875C10.0239 15.839 9.97351 15.4864 9.72499 15.3C9.47646 15.1136 9.12388 15.164 8.93748 15.4125L8.71249 15.7125C7.92498 16.7625 6.34998 16.7625 5.56248 15.7125L5.33748 15.4125Z" fill="#A8A8A8"/>
</svg>
