<svg width="18" height="14" viewBox="0 0 18 14" fill="none" xmlns="http://www.w3.org/2000/svg">
<path d="M10.5251 0.4375C11.5539 0.437497 12.3605 0.437494 13.0087 0.490459C13.6688 0.544392 14.2142 0.656034 14.7078 0.907535C15.5192 1.32099 16.179 1.98072 16.5924 2.79217C16.894 3.38407 16.9982 4.06175 17.0373 4.9375H0.962594C1.00172 4.06175 1.10588 3.38407 1.40747 2.79217C1.82093 1.98072 2.48066 1.32099 3.2921 0.907535C3.7857 0.656034 4.33103 0.544392 4.99114 0.490459C5.6394 0.437494 6.44598 0.437497 7.47477 0.4375H10.5251Z" fill="#00BE5D"/>
<path fill-rule="evenodd" clip-rule="evenodd" d="M0.939144 6.0625C0.937439 6.35055 0.937439 6.66098 0.937439 6.99566V7.02517C0.937436 8.05396 0.937433 8.86054 0.990398 9.5088C1.04433 10.1689 1.15597 10.7142 1.40747 11.2078C1.82093 12.0193 2.48066 12.679 3.2921 13.0925C3.7857 13.344 4.33103 13.4556 4.99114 13.5095C5.63937 13.5625 6.4459 13.5625 7.47461 13.5625H10.5251C11.5538 13.5625 12.3605 13.5625 13.0087 13.5095C13.6688 13.4556 14.2142 13.344 14.7078 13.0925C15.5192 12.679 16.179 12.0193 16.5924 11.2078C16.8439 10.7142 16.9555 10.1689 17.0095 9.5088C17.0624 8.86057 17.0624 8.05404 17.0624 7.02533V6.99565C17.0624 6.66097 17.0624 6.35055 17.0607 6.0625H0.939144ZM3.93744 10.75C3.93744 10.4393 4.18928 10.1875 4.49994 10.1875H5.99994C6.3106 10.1875 6.56244 10.4393 6.56244 10.75C6.56244 11.0607 6.3106 11.3125 5.99994 11.3125H4.49994C4.18928 11.3125 3.93744 11.0607 3.93744 10.75ZM7.68744 10.75C7.68744 10.4393 7.93928 10.1875 8.24994 10.1875H11.2499C11.5606 10.1875 11.8124 10.4393 11.8124 10.75C11.8124 11.0607 11.5606 11.3125 11.2499 11.3125H8.24994C7.93928 11.3125 7.68744 11.0607 7.68744 10.75Z" fill="#00BE5D"/>
</svg>
