<svg width="18" height="14" viewBox="0 0 18 14" fill="none" xmlns="http://www.w3.org/2000/svg">
<path d="M4.5 10.1875C4.18934 10.1875 3.9375 10.4393 3.9375 10.75C3.9375 11.0607 4.18934 11.3125 4.5 11.3125H6C6.31066 11.3125 6.5625 11.0607 6.5625 10.75C6.5625 10.4393 6.31066 10.1875 6 10.1875H4.5Z" fill="#A8A8A8"/>
<path d="M8.25 10.1875C7.93934 10.1875 7.6875 10.4393 7.6875 10.75C7.6875 11.0607 7.93934 11.3125 8.25 11.3125H11.25C11.5607 11.3125 11.8125 11.0607 11.8125 10.75C11.8125 10.4393 11.5607 10.1875 11.25 10.1875H8.25Z" fill="#A8A8A8"/>
<path fill-rule="evenodd" clip-rule="evenodd" d="M13.0088 0.490459C12.3605 0.437494 11.554 0.437497 10.5252 0.4375H7.47483C6.44604 0.437497 5.63946 0.437494 4.9912 0.490459C4.3311 0.544392 3.78576 0.656034 3.29217 0.907535C2.48072 1.32099 1.82099 1.98072 1.40753 2.79217C1.04545 3.50279 0.967948 4.33703 0.945889 5.48923C0.9375 5.92739 0.9375 6.42644 0.9375 6.99566V7.02517C0.937497 8.05396 0.937494 8.86054 0.990459 9.5088C1.04439 10.1689 1.15603 10.7142 1.40753 11.2078C1.82099 12.0193 2.48072 12.679 3.29217 13.0925C3.78576 13.344 4.3311 13.4556 4.9912 13.5095C5.63945 13.5625 6.44601 13.5625 7.47478 13.5625H10.5252C11.5539 13.5625 12.3605 13.5625 13.0088 13.5095C13.6689 13.4556 14.2142 13.344 14.7078 13.0925C15.5193 12.679 16.179 12.0193 16.5925 11.2078C16.844 10.7142 16.9556 10.1689 17.0095 9.5088C17.0625 8.86055 17.0625 8.05398 17.0625 7.02522V6.99565C17.0625 6.42643 17.0625 5.92739 17.0541 5.48923C17.0321 4.33703 16.9545 3.50279 16.5925 2.79217C16.179 1.98072 15.5193 1.32099 14.7078 0.907535C14.2142 0.656034 13.6689 0.544392 13.0088 0.490459ZM3.80291 1.90992C4.11148 1.75269 4.49228 1.65997 5.08281 1.61172C5.67991 1.56294 6.44062 1.5625 7.5 1.5625H10.5C11.5594 1.5625 12.3201 1.56294 12.9172 1.61172C13.5077 1.65997 13.8885 1.75269 14.1971 1.90992C14.7969 2.21551 15.2845 2.70314 15.5901 3.30291C15.7807 3.67692 15.8719 4.14412 15.9107 4.9375H2.08925C2.12814 4.14412 2.21935 3.67692 2.40992 3.30291C2.71551 2.70314 3.20314 2.21551 3.80291 1.90992ZM2.0625 7C2.0625 6.65893 2.06251 6.34805 2.06422 6.0625H15.9358C15.9375 6.34805 15.9375 6.65893 15.9375 7C15.9375 8.05938 15.9371 8.82009 15.8883 9.41719C15.84 10.0077 15.7473 10.3885 15.5901 10.6971C15.2845 11.2969 14.7969 11.7845 14.1971 12.0901C13.8885 12.2473 13.5077 12.34 12.9172 12.3883C12.3201 12.4371 11.5594 12.4375 10.5 12.4375H7.5C6.44062 12.4375 5.67991 12.4371 5.08281 12.3883C4.49228 12.34 4.11148 12.2473 3.80291 12.0901C3.20314 11.7845 2.71551 11.2969 2.40992 10.6971C2.25269 10.3885 2.15997 10.0077 2.11172 9.41719C2.06294 8.82009 2.0625 8.05938 2.0625 7Z" fill="#A8A8A8"/>
</svg>
