<svg width="8" height="14" viewBox="0 0 8 14" fill="none" xmlns="http://www.w3.org/2000/svg">
<path d="M6.64989 13.5536C6.48572 13.5537 6.32313 13.5215 6.17147 13.4586C6.01981 13.3958 5.88206 13.3036 5.76614 13.1873L0.463639 7.88357C0.229301 7.64916 0.0976562 7.33127 0.0976562 6.99982C0.0976562 6.66836 0.229301 6.35048 0.463639 6.11607L5.76614 0.812316C6.00189 0.584619 6.31765 0.458625 6.64539 0.461473C6.97314 0.464321 7.28665 0.595783 7.51841 0.827543C7.75017 1.0593 7.88163 1.37282 7.88448 1.70056C7.88733 2.02831 7.76134 2.34406 7.53364 2.57982L3.11489 6.99982L7.53364 11.4198C7.7084 11.5946 7.82741 11.8173 7.87562 12.0598C7.92383 12.3022 7.89907 12.5535 7.80449 12.7819C7.7099 13.0103 7.54973 13.2055 7.34421 13.3428C7.1387 13.4802 6.89708 13.5535 6.64989 13.5536Z" fill="#272727"/>
</svg>
