<svg width="25" height="24" viewBox="0 0 25 24" fill="none" xmlns="http://www.w3.org/2000/svg">
<path d="M21.3418 17.1447C21.0091 17.9133 20.6153 18.6208 20.159 19.2713C19.5371 20.158 19.0278 20.7719 18.6354 21.1127C18.027 21.6722 17.3752 21.9587 16.6772 21.975C16.1761 21.975 15.5718 21.8324 14.8683 21.5432C14.1626 21.2553 13.514 21.1127 12.921 21.1127C12.2991 21.1127 11.632 21.2553 10.9185 21.5432C10.204 21.8324 9.62831 21.9832 9.18819 21.9981C8.51884 22.0266 7.85166 21.7319 7.18571 21.1127C6.76066 20.742 6.22901 20.1064 5.59212 19.2061C4.90878 18.2446 4.34698 17.1297 3.90686 15.8587C3.43551 14.4857 3.19922 13.1563 3.19922 11.8692C3.19922 10.3948 3.5178 9.12321 4.15592 8.0576C4.65742 7.20166 5.32459 6.52647 6.15962 6.03081C6.99464 5.53514 7.89688 5.28256 8.86852 5.2664C9.40017 5.2664 10.0974 5.43085 10.9637 5.75405C11.8277 6.07834 12.3824 6.24279 12.6256 6.24279C12.8075 6.24279 13.4237 6.0505 14.4684 5.66714C15.4564 5.31162 16.2902 5.16441 16.9732 5.2224C18.8241 5.37178 20.2147 6.10142 21.1395 7.41595C19.4841 8.41896 18.6653 9.82379 18.6816 11.626C18.6965 13.0297 19.2057 14.1979 20.2066 15.1254C20.6601 15.5558 21.1667 15.8885 21.7302 16.1248C21.608 16.4793 21.479 16.8188 21.3418 17.1447ZM17.0968 0.440125C17.0968 1.54038 16.6948 2.56768 15.8936 3.51854C14.9267 4.64892 13.7572 5.30211 12.489 5.19904C12.4729 5.06705 12.4635 4.92812 12.4635 4.78214C12.4635 3.7259 12.9233 2.59552 13.7399 1.67127C14.1475 1.20331 14.666 0.814209 15.2948 0.503814C15.9221 0.19805 16.5156 0.0289566 17.0737 0C17.09 0.147086 17.0968 0.294182 17.0968 0.440111V0.440125Z" fill="black"/>
</svg>
