<svg width="30" height="30" viewBox="0 0 30 30" fill="none" xmlns="http://www.w3.org/2000/svg">
<path d="M24.3972 6.45492H21.2166L19.6527 4.10964C19.5689 3.98406 19.4555 3.88109 19.3224 3.80984C19.1893 3.73859 19.0407 3.70126 18.8897 3.70117H11.5464C11.3954 3.70126 11.2468 3.73859 11.1137 3.80984C10.9806 3.88109 10.8672 3.98406 10.7834 4.10964L9.21833 6.45492H6.0389C5.30856 6.45492 4.60814 6.74504 4.09171 7.26147C3.57528 7.7779 3.28516 8.47832 3.28516 9.20866V22.0595C3.28516 22.7898 3.57528 23.4902 4.09171 24.0067C4.60814 24.5231 5.30856 24.8132 6.0389 24.8132H24.3972C25.1275 24.8132 25.828 24.5231 26.3444 24.0067C26.8608 23.4902 27.151 22.7898 27.151 22.0595V9.20866C27.151 8.47832 26.8608 7.7779 26.3444 7.26147C25.828 6.74504 25.1275 6.45492 24.3972 6.45492ZM25.3151 22.0595C25.3151 22.3029 25.2184 22.5364 25.0463 22.7085C24.8741 22.8807 24.6407 22.9774 24.3972 22.9774H6.0389C5.79546 22.9774 5.56198 22.8807 5.38984 22.7085C5.2177 22.5364 5.12099 22.3029 5.12099 22.0595V9.20866C5.12099 8.96522 5.2177 8.73174 5.38984 8.5596C5.56198 8.38746 5.79546 8.29075 6.0389 8.29075H9.71056C9.86172 8.29085 10.0106 8.25361 10.1439 8.18235C10.2772 8.1111 10.3908 8.00802 10.4747 7.88228L12.0375 5.537H18.3975L19.9614 7.88228C20.0453 8.00802 20.1589 8.1111 20.2922 8.18235C20.4255 8.25361 20.5744 8.29085 20.7255 8.29075H24.3972C24.6407 8.29075 24.8741 8.38746 25.0463 8.5596C25.2184 8.73174 25.3151 8.96522 25.3151 9.20866V22.0595ZM15.2181 10.1266C14.2196 10.1266 13.2435 10.4227 12.4132 10.9774C11.583 11.5322 10.9359 12.3206 10.5538 13.2431C10.1717 14.1656 10.0717 15.1807 10.2665 16.16C10.4613 17.1394 10.9422 18.0389 11.6482 18.745C12.3543 19.451 13.2538 19.9318 14.2331 20.1266C15.2125 20.3214 16.2275 20.2215 17.15 19.8394C18.0725 19.4572 18.861 18.8102 19.4158 17.9799C19.9705 17.1497 20.2666 16.1736 20.2666 15.1751C20.2651 13.8366 19.7327 12.5534 18.7862 11.6069C17.8398 10.6605 16.5565 10.1281 15.2181 10.1266ZM15.2181 18.3878C14.5826 18.3878 13.9615 18.1994 13.4332 17.8464C12.9048 17.4934 12.4931 16.9916 12.2499 16.4046C12.0067 15.8175 11.9431 15.1715 12.0671 14.5483C12.191 13.9251 12.497 13.3527 12.9463 12.9034C13.3956 12.4541 13.9681 12.1481 14.5913 12.0241C15.2145 11.9002 15.8605 11.9638 16.4475 12.207C17.0345 12.4501 17.5363 12.8619 17.8893 13.3902C18.2423 13.9186 18.4308 14.5397 18.4308 15.1751C18.4308 16.0272 18.0923 16.8443 17.4898 17.4468C16.8873 18.0493 16.0701 18.3878 15.2181 18.3878Z" fill="white"/>
</svg>
