<svg width="24" height="24" viewBox="0 0 24 24" fill="none" xmlns="http://www.w3.org/2000/svg">
<g clip-path="url(#clip0_1010_14795)">
<path d="M23.7643 12.2763C23.7643 11.4605 23.6982 10.6404 23.5571 9.83789H12.2383V14.4589H18.72C18.451 15.9492 17.5868 17.2676 16.3213 18.1054V21.1037H20.1883C22.4591 19.0137 23.7643 15.9272 23.7643 12.2763Z" fill="#4285F4"/>
<path d="M12.2391 24.0008C15.4756 24.0008 18.205 22.9382 20.1936 21.1039L16.3266 18.1055C15.2507 18.8375 13.8618 19.252 12.2435 19.252C9.11291 19.252 6.45849 17.1399 5.50607 14.3003H1.51562V17.3912C3.55274 21.4434 7.70192 24.0008 12.2391 24.0008Z" fill="#34A853"/>
<path d="M5.50082 14.3002C4.99816 12.8099 4.99816 11.196 5.50082 9.70569V6.61475H1.51478C-0.187219 10.0055 -0.187219 14.0004 1.51478 17.3912L5.50082 14.3002Z" fill="#FBBC04"/>
<path d="M12.2391 4.74966C13.9499 4.7232 15.6034 5.36697 16.8425 6.54867L20.2685 3.12262C18.0991 1.0855 15.2198 -0.034466 12.2391 0.000808666C7.70192 0.000808666 3.55274 2.55822 1.51562 6.61481L5.50166 9.70575C6.44967 6.86173 9.1085 4.74966 12.2391 4.74966Z" fill="#EA4335"/>
</g>
<defs>
<clipPath id="clip0_1010_14795">
<rect width="24" height="24" fill="white"/>
</clipPath>
</defs>
</svg>
