<svg width="35" height="36" viewBox="0 0 35 36" fill="none" xmlns="http://www.w3.org/2000/svg">
<rect y="0.5" width="35" height="35" rx="17.5" fill="#88B6A1" fill-opacity="0.06"/>
<path d="M10 11.4375C10 10.9197 10.4197 10.5 10.9375 10.5H24.0625C24.5803 10.5 25 10.9197 25 11.4375C25 11.9553 24.5803 12.375 24.0625 12.375H10.9375C10.4197 12.375 10 11.9553 10 11.4375ZM15 18C15 17.4822 15.4197 17.0625 15.9375 17.0625H24.0625C24.5803 17.0625 25 17.4822 25 18C25 18.5178 24.5803 18.9375 24.0625 18.9375H15.9375C15.4197 18.9375 15 18.5178 15 18ZM10 24.5625C10 24.0447 10.4197 23.625 10.9375 23.625H24.0625C24.5803 23.625 25 24.0447 25 24.5625C25 25.0803 24.5803 25.5 24.0625 25.5H10.9375C10.4197 25.5 10 25.0803 10 24.5625Z" fill="#313131"/>
</svg>
