<svg width="30" height="30" viewBox="0 0 30 30" fill="none" xmlns="http://www.w3.org/2000/svg">
<path d="M22.5 16.248H16.25V22.498C16.25 22.8296 16.1183 23.1475 15.8839 23.3819C15.6495 23.6164 15.3315 23.748 15 23.748C14.6685 23.748 14.3505 23.6164 14.1161 23.3819C13.8817 23.1475 13.75 22.8296 13.75 22.498V16.248H7.5C7.16848 16.248 6.85054 16.1164 6.61612 15.8819C6.3817 15.6475 6.25 15.3296 6.25 14.998C6.25 14.6665 6.3817 14.3486 6.61612 14.1142C6.85054 13.8797 7.16848 13.748 7.5 13.748H13.75V7.49805C13.75 7.16653 13.8817 6.84858 14.1161 6.61416C14.3505 6.37974 14.6685 6.24805 15 6.24805C15.3315 6.24805 15.6495 6.37974 15.8839 6.61416C16.1183 6.84858 16.25 7.16653 16.25 7.49805V13.748H22.5C22.8315 13.748 23.1495 13.8797 23.3839 14.1142C23.6183 14.3486 23.75 14.6665 23.75 14.998C23.75 15.3296 23.6183 15.6475 23.3839 15.8819C23.1495 16.1164 22.8315 16.248 22.5 16.248Z" fill="#00BE5D"/>
</svg>
