<svg width="55" height="55" viewBox="0 0 55 55" fill="none" xmlns="http://www.w3.org/2000/svg">
<rect width="55" height="55" rx="27.5" fill="#EBFAF2"/>
<path d="M29.3064 17.9809C28.552 17.8125 27.7822 17.7231 27.0093 17.7144C26.2173 17.7229 25.4467 17.8129 24.6915 17.9809C24.5305 18.0169 24.3848 18.1024 24.2747 18.2254C24.1647 18.3483 24.0958 18.5026 24.0778 18.6666L23.8987 20.2755C23.873 20.5024 23.7946 20.7202 23.6696 20.9114C23.5447 21.1025 23.3768 21.2618 23.1792 21.3764C22.9817 21.4911 22.7601 21.5579 22.5321 21.5715C22.3042 21.5851 22.0762 21.5452 21.8664 21.4549L20.3921 20.8061C20.2425 20.7402 20.076 20.7225 19.9159 20.7553C19.7557 20.7882 19.6097 20.87 19.4981 20.9895C18.4319 22.1304 17.638 23.4981 17.1761 24.9898C17.1274 25.1468 17.1289 25.3151 17.1802 25.4713C17.2315 25.6275 17.3301 25.7639 17.4624 25.8615L18.7713 26.8258C18.9554 26.9613 19.105 27.1381 19.2082 27.3421C19.3113 27.5461 19.3651 27.7715 19.3651 28.0001C19.3651 28.2287 19.3113 28.454 19.2082 28.658C19.105 28.862 18.9554 29.0389 18.7713 29.1744L17.4624 30.1412C17.3303 30.2388 17.2317 30.375 17.1805 30.531C17.1292 30.687 17.1276 30.8551 17.1761 31.0121C17.637 32.5051 18.4303 33.8742 19.4964 35.0166C19.6079 35.1363 19.7539 35.2183 19.914 35.2513C20.0742 35.2843 20.2407 35.2667 20.3904 35.2009L21.8715 34.5504C22.0801 34.4593 22.3071 34.4185 22.5343 34.4313C22.7615 34.4441 22.9825 34.5101 23.1795 34.6241C23.579 34.8555 23.8455 35.2626 23.8978 35.7221L24.0761 37.3309C24.094 37.4927 24.1614 37.6451 24.2691 37.7672C24.3768 37.8893 24.5195 37.9752 24.6778 38.0132C26.203 38.3769 27.7923 38.3769 29.3175 38.0132C29.4758 37.9752 29.6186 37.8893 29.7263 37.7672C29.834 37.6451 29.9013 37.4927 29.9193 37.3309L30.0975 35.7195C30.1217 35.4924 30.1992 35.2743 30.3235 35.0828C30.4479 34.8913 30.6157 34.7318 30.8134 34.6174C31.011 34.503 31.2328 34.4368 31.4608 34.4243C31.6888 34.4117 31.9166 34.4532 32.1255 34.5452L33.6058 35.1958C33.7556 35.2616 33.922 35.2792 34.0822 35.2461C34.2424 35.2131 34.3883 35.1311 34.4998 35.0115C35.5653 33.8703 36.3586 32.5027 36.8201 31.0112C36.8688 30.8542 36.8674 30.6859 36.8161 30.5297C36.7648 30.3735 36.6661 30.2371 36.5338 30.1395L35.2267 29.1744C35.0425 29.0389 34.8928 28.8621 34.7896 28.6582C34.6863 28.4542 34.6325 28.2289 34.6324 28.0003C34.6324 27.7717 34.686 27.5463 34.7891 27.3423C34.8922 27.1383 35.0418 26.9613 35.2258 26.8258L36.533 25.8598C36.6649 25.7621 36.7633 25.6258 36.8144 25.4698C36.8656 25.3138 36.867 25.1458 36.8184 24.9889C36.3568 23.4973 35.5632 22.1296 34.4973 20.9886C34.3856 20.8692 34.2397 20.7873 34.0795 20.7545C33.9193 20.7216 33.7529 20.7393 33.6033 20.8052L32.129 21.4541C31.9455 21.5357 31.7469 21.5778 31.5461 21.5775C31.187 21.5768 30.8409 21.4437 30.5739 21.2036C30.3069 20.9635 30.1379 20.6333 30.0993 20.2764L29.9193 18.6658C29.9013 18.5021 29.8327 18.3481 29.723 18.2253C29.6132 18.1025 29.467 18.0171 29.3064 17.9809ZM26.9981 31.4286C26.0888 31.4286 25.2167 31.0674 24.5737 30.4244C23.9308 29.7815 23.5695 28.9094 23.5695 28.0001C23.5695 27.0908 23.9308 26.2187 24.5737 25.5757C25.2167 24.9327 26.0888 24.5715 26.9981 24.5715C27.9074 24.5715 28.7795 24.9327 29.4225 25.5757C30.0655 26.2187 30.4267 27.0908 30.4267 28.0001C30.4267 28.9094 30.0655 29.7815 29.4225 30.4244C28.7795 31.0674 27.9074 31.4286 26.9981 31.4286Z" fill="#00BE5D"/>
</svg>
