<svg width="45" height="45" viewBox="0 0 45 45" fill="none" xmlns="http://www.w3.org/2000/svg">
<rect x="3.15625" y="3.125" width="38.75" height="38.75" rx="19.375" fill="#020202"/>
<rect x="3.15625" y="3.125" width="38.75" height="38.75" rx="19.375" stroke="black" stroke-width="5.8125"/>
<path d="M22.5323 19.2709V22.5001M22.5323 25.7293H22.5403M21.1518 15.1215L14.314 26.5366C14.173 26.7807 14.0985 27.0575 14.0977 27.3394C14.0969 27.6213 14.1699 27.8986 14.3095 28.1435C14.4491 28.3884 14.6504 28.5925 14.8934 28.7355C15.1364 28.8785 15.4126 28.9553 15.6945 28.9584H29.37C29.6519 28.9553 29.9281 28.8785 30.1711 28.7355C30.4141 28.5925 30.6154 28.3884 30.755 28.1435C30.8946 27.8986 30.9676 27.6213 30.9668 27.3394C30.9661 27.0575 30.8915 26.7807 30.7505 26.5366L23.9127 15.1215C23.7688 14.8842 23.5662 14.688 23.3244 14.5519C23.0826 14.4158 22.8097 14.3442 22.5323 14.3442C22.2548 14.3442 21.9819 14.4158 21.7401 14.5519C21.4983 14.688 21.2957 14.8842 21.1518 15.1215Z" stroke="#DC6803" stroke-width="1.61458" stroke-linecap="round" stroke-linejoin="round"/>
</svg>
