<svg width="55" height="56" viewBox="0 0 55 56" fill="none" xmlns="http://www.w3.org/2000/svg">
<rect y="0.5" width="55" height="55" rx="27.5" fill="#EBFAF2"/>
<path d="M27.0013 20.167C24.8152 20.167 23.043 21.9392 23.043 24.1253C23.043 26.3115 24.8152 28.0837 27.0013 28.0837C29.1874 28.0837 30.9596 26.3115 30.9596 24.1253C30.9596 21.9392 29.1874 20.167 27.0013 20.167Z" fill="#00BE5D"/>
<path d="M24.5013 29.3337C22.3152 29.3337 20.543 31.1059 20.543 33.292C20.543 35.4781 22.3152 37.2503 24.5013 37.2503H29.5013C31.6874 37.2503 33.4596 35.4781 33.4596 33.292C33.4596 31.1059 31.6874 29.3337 29.5013 29.3337H24.5013Z" fill="#00BE5D"/>
</svg>
