<svg width="55" height="56" viewBox="0 0 55 56" fill="none" xmlns="http://www.w3.org/2000/svg">
<rect y="0.5" width="55" height="55" rx="27.5" fill="#FF0000" fill-opacity="0.1"/>
<path fill-rule="evenodd" clip-rule="evenodd" d="M23.8333 27.875C23.4882 27.875 23.2083 28.1548 23.2083 28.5C23.2083 28.8452 23.4882 29.125 23.8333 29.125L30.5 29.125L30.5 31C30.5 31.7742 30.5 32.1613 30.4487 32.4851C30.1663 34.268 28.768 35.6663 26.9851 35.9487C26.6613 36 26.2742 36 25.5 36C24.7258 36 24.3387 36 24.0149 35.9487C22.232 35.6663 20.8337 34.268 20.5513 32.4851C20.5 32.1613 20.5 31.7742 20.5 31L20.5 26C20.5 25.2258 20.5 24.8387 20.5513 24.5149C20.8337 22.732 22.232 21.3337 24.0149 21.0513C24.3387 21 24.7258 21 25.5 21C26.2742 21 26.6613 21 26.9851 21.0513C28.768 21.3337 30.1663 22.732 30.4487 24.5149C30.5 24.8387 30.5 25.2258 30.5 26L30.5 27.875L23.8333 27.875ZM30.5 27.875L34.5087 27.875C34.2359 27.6061 33.8342 27.2865 33.2475 26.8213L31.7784 25.6564C31.5079 25.4419 31.4625 25.0488 31.6769 24.7784C31.8914 24.5079 32.2845 24.4625 32.555 24.6769L34.054 25.8655C34.6144 26.3098 35.0768 26.6764 35.4062 27.0046C35.7443 27.3414 36.0245 27.7151 36.1006 28.1928C36.1169 28.2945 36.125 28.3972 36.125 28.5C36.125 28.6028 36.1169 28.7055 36.1006 28.8072C36.0245 29.2849 35.7443 29.6586 35.4062 29.9954C35.0768 30.3236 34.6144 30.6902 34.054 31.1345L32.555 32.3231C32.2845 32.5375 31.8914 32.4921 31.6769 32.2216C31.4625 31.9512 31.5079 31.5581 31.7784 31.3436L33.2475 30.1787C33.8342 29.7135 34.2359 29.3939 34.5087 29.125L30.5 29.125L30.5 27.875Z" fill="#FF0000"/>
</svg>
