<svg width="55" height="56" viewBox="0 0 55 56" fill="none" xmlns="http://www.w3.org/2000/svg">
<rect y="0.5" width="55" height="55" rx="27.5" fill="#FFE6E6"/>
<path d="M19 31C19 31 20 30 23 30C26 30 28 32 31 32C34 32 35 31 35 31V19C35 19 34 20 31 20C28 20 26 18 23 18C20 18 19 19 19 19V31Z" fill="#FF5454"/>
<path d="M19 31C19 31 20 30 23 30C26 30 28 32 31 32C34 32 35 31 35 31V19C35 19 34 20 31 20C28 20 26 18 23 18C20 18 19 19 19 19V31ZM19 31V38" stroke="#FF0000" stroke-width="2" stroke-linecap="round" stroke-linejoin="round"/>
</svg>
