<svg width="55" height="56" viewBox="0 0 55 56" fill="none" xmlns="http://www.w3.org/2000/svg">
<rect y="0.5" width="55" height="55" rx="27.5" fill="#EBFAF2"/>
<path d="M25.8889 31.1219C25.8889 30.4882 26.3864 29.9745 27 29.9745C27.6137 29.9745 28.1111 30.4882 28.1111 31.1219C28.1111 31.7556 27.6137 32.2694 27 32.2694C26.3864 32.2694 25.8889 31.7556 25.8889 31.1219Z" fill="#00BE5D"/>
<path fill-rule="evenodd" clip-rule="evenodd" d="M27 18.5C24.1772 18.5 21.8889 20.8632 21.8889 23.7783V24.8006C21.8889 24.8619 21.8967 24.9214 21.9112 24.978C20.6347 25.4624 19.6397 26.5259 19.2175 27.8677C19 28.5591 19 29.4133 19 31.1219C19 32.8305 19 33.6848 19.2175 34.3762C19.6572 35.7735 20.718 36.869 22.071 37.323C22.7405 37.5476 23.5677 37.5476 25.2222 37.5476H28.7778C30.4322 37.5476 31.2595 37.5476 31.929 37.323C33.282 36.869 34.3428 35.7735 34.7825 34.3762C35 33.6848 35 32.8305 35 31.1219C35 29.4133 35 28.5591 34.7825 27.8677C34.3603 26.5259 33.3653 25.4624 32.0888 24.978C32.1033 24.9214 32.1111 24.8619 32.1111 24.8006V23.7783C32.1111 20.8632 29.8228 18.5 27 18.5ZM28.7778 24.6962C29.6358 24.6962 30.2713 24.6962 30.7778 24.7275V23.7783C30.7778 21.6236 29.0864 19.8769 27 19.8769C24.9136 19.8769 23.2222 21.6236 23.2222 23.7783V24.7275C23.7287 24.6962 24.3642 24.6962 25.2222 24.6962H28.7778ZM24.5556 31.1219C24.5556 29.7277 25.65 28.5975 27 28.5975C28.35 28.5975 29.4444 29.7277 29.4444 31.1219C29.4444 32.5161 28.35 33.6463 27 33.6463C25.65 33.6463 24.5556 32.5161 24.5556 31.1219Z" fill="#00BE5D"/>
</svg>
