<svg width="55" height="56" viewBox="0 0 55 56" fill="none" xmlns="http://www.w3.org/2000/svg">
<rect y="0.5" width="55" height="55" rx="27.5" fill="#EBFAF2"/>
<path d="M28 36.77L27.942 34.5H26.5C24.4153 34.5 22.6443 33.771 21.187 32.313C19.729 30.8557 19 29.0847 19 27C19 24.9153 19.729 23.1443 21.187 21.687C22.6443 20.229 24.4153 19.5 26.5 19.5C27.542 19.5 28.518 19.6953 29.428 20.086C30.3373 20.476 31.1317 21.0103 31.811 21.689C32.4897 22.3683 33.024 23.1627 33.414 24.072C33.8047 24.982 34 25.958 34 27C34 28.0193 33.8503 28.9983 33.551 29.937C33.251 30.875 32.837 31.762 32.309 32.598C31.7797 33.434 31.1463 34.204 30.409 34.908C29.6717 35.612 28.8687 36.2323 28 36.769M26.533 32.071C26.7397 32.071 26.914 32 27.056 31.858C27.198 31.7153 27.269 31.541 27.269 31.335C27.269 31.1283 27.198 30.954 27.056 30.812C26.9133 30.6693 26.739 30.598 26.533 30.598C26.3263 30.598 26.152 30.6693 26.01 30.812C25.8673 30.954 25.796 31.1283 25.796 31.335C25.796 31.5417 25.8673 31.716 26.01 31.858C26.152 32 26.3263 32.071 26.533 32.071ZM26.096 29.146H26.981C27.0063 28.736 27.085 28.4117 27.217 28.173C27.349 27.9343 27.6623 27.5677 28.157 27.073C28.4443 26.7863 28.672 26.4933 28.84 26.194C29.008 25.8953 29.092 25.5523 29.092 25.165C29.092 24.4437 28.843 23.877 28.345 23.465C27.847 23.0523 27.2447 22.846 26.538 22.846C25.9207 22.846 25.3973 23.015 24.968 23.353C24.538 23.691 24.223 24.094 24.023 24.562L24.846 24.881C24.9807 24.585 25.1773 24.3153 25.436 24.072C25.6953 23.8293 26.0627 23.708 26.538 23.708C27.104 23.708 27.5217 23.8617 27.791 24.169C28.061 24.477 28.196 24.813 28.196 25.177C28.196 25.5117 28.1093 25.7947 27.936 26.026C27.7627 26.2573 27.5403 26.509 27.269 26.781C26.789 27.2037 26.4733 27.5837 26.322 27.921C26.1713 28.257 26.096 28.6653 26.096 29.146Z" fill="#00BE5D"/>
</svg>
