<svg width="55" height="56" viewBox="0 0 55 56" fill="none" xmlns="http://www.w3.org/2000/svg">
<rect y="0.5" width="55" height="55" rx="27.5" fill="#EBFAF2"/>
<path d="M23 33.5C23.2833 33.5 23.521 33.404 23.713 33.212C23.905 33.02 24.0007 32.7827 24 32.5C24 32.2167 23.904 31.9793 23.712 31.788C23.52 31.5967 23.2827 31.5007 23 31.5C22.7167 31.5 22.4793 31.596 22.288 31.788C22.0967 31.98 22.0007 32.2173 22 32.5C22 32.7833 22.096 33.021 22.288 33.213C22.48 33.405 22.7173 33.5007 23 33.5ZM23 29.5C23.2833 29.5 23.521 29.404 23.713 29.212C23.905 29.02 24.0007 28.7827 24 28.5C24 28.2167 23.904 27.9793 23.712 27.788C23.52 27.5967 23.2827 27.5007 23 27.5C22.7167 27.5 22.4793 27.596 22.288 27.788C22.0967 27.98 22.0007 28.2173 22 28.5C22 28.7833 22.096 29.021 22.288 29.213C22.48 29.405 22.7173 29.5007 23 29.5ZM23 25.5C23.2833 25.5 23.521 25.404 23.713 25.212C23.905 25.02 24.0007 24.7827 24 24.5C24 24.2167 23.904 23.9793 23.712 23.788C23.52 23.5967 23.2827 23.5007 23 23.5C22.7167 23.5 22.4793 23.596 22.288 23.788C22.0967 23.98 22.0007 24.2173 22 24.5C22 24.7833 22.096 25.021 22.288 25.213C22.48 25.405 22.7173 25.5007 23 25.5ZM26 33.5H32V31.5H26V33.5ZM26 29.5H32V27.5H26V29.5ZM26 25.5H32V23.5H26V25.5ZM20 37.5C19.45 37.5 18.9793 37.3043 18.588 36.913C18.1967 36.5217 18.0007 36.0507 18 35.5V21.5C18 20.95 18.196 20.4793 18.588 20.088C18.98 19.6967 19.4507 19.5007 20 19.5H34C34.55 19.5 35.021 19.696 35.413 20.088C35.805 20.48 36.0007 20.9507 36 21.5V35.5C36 36.05 35.8043 36.521 35.413 36.913C35.0217 37.305 34.5507 37.5007 34 37.5H20Z" fill="#00BE5D"/>
</svg>
